<svg width="512" height="512" viewBox="0 0 512 512" fill="none" xmlns="http://www.w3.org/2000/svg">
<path fill-rule="evenodd" clip-rule="evenodd" d="M133.027 247.844C70.8612 247.844 20.4657 298.24 20.4657 360.406C20.4657 422.572 70.8612 472.967 133.027 472.967C195.193 472.967 245.589 422.572 245.589 360.406C245.589 298.24 195.193 247.844 133.027 247.844ZM0 360.406C0 286.937 59.5583 227.379 133.027 227.379C206.496 227.379 266.054 286.937 266.054 360.406C266.054 433.875 206.496 493.433 133.027 493.433C59.5583 493.433 0 433.875 0 360.406Z" fill="#0099FF"/>
<path fill-rule="evenodd" clip-rule="evenodd" d="M6.99262 319.474C6.99262 313.823 11.574 309.241 17.2255 309.241H248.827C254.478 309.241 259.06 313.823 259.06 319.474C259.06 325.126 254.478 329.707 248.827 329.707H17.2255C11.574 329.707 6.99262 325.126 6.99262 319.474Z" fill="#0099FF"/>
<path fill-rule="evenodd" clip-rule="evenodd" d="M6.99731 401.337C6.99731 395.686 11.5787 391.104 17.2302 391.104H248.83C254.482 391.104 259.063 395.686 259.063 401.337C259.063 406.989 254.482 411.57 248.83 411.57H17.2302C11.5787 411.57 6.99731 406.989 6.99731 401.337Z" fill="#0099FF"/>
<path fill-rule="evenodd" clip-rule="evenodd" d="M106.124 280.268C97.5293 300.341 91.964 328.785 91.964 360.739C91.964 392.693 97.5293 421.136 106.124 441.209C110.429 451.263 115.292 458.746 120.171 463.566C125.007 468.343 129.295 470.004 132.895 470.004C136.496 470.004 140.784 468.343 145.619 463.566C150.499 458.746 155.362 451.263 159.667 441.209C168.262 421.136 173.827 392.693 173.827 360.739C173.827 328.785 168.262 300.341 159.667 280.268C155.362 270.214 150.499 262.731 145.619 257.911C140.784 253.134 136.496 251.473 132.895 251.473C129.295 251.473 125.007 253.134 120.171 257.911C115.292 262.731 110.429 270.214 106.124 280.268ZM105.789 243.352C113.195 236.035 122.367 231.008 132.895 231.008C143.424 231.008 152.595 236.035 160.002 243.352C167.366 250.625 173.527 260.643 178.481 272.213C188.404 295.39 194.293 326.696 194.293 360.739C194.293 394.782 188.404 426.087 178.481 449.264C173.527 460.834 167.366 470.852 160.002 478.126C152.595 485.443 143.424 490.469 132.895 490.469C122.367 490.469 113.195 485.443 105.789 478.126C98.4253 470.852 92.2638 460.834 87.3099 449.264C77.3864 426.087 71.4983 394.782 71.4983 360.739C71.4983 326.696 77.3864 295.39 87.3099 272.213C92.2638 260.643 98.4253 250.625 105.789 243.352Z" fill="#0099FF"/>
<path d="M512 106.57L181.297 17.0667L135.403 190.069L269.007 226.229L279.107 188.155L476.205 241.499L512 106.57Z" fill="#0099FF"/>
<path d="M281.634 402.435L423.148 440.735L469.042 267.732L335.438 231.573L325.338 269.647L235.832 245.423C267.474 273.671 287.395 314.772 287.395 360.526C287.395 375.052 285.387 389.109 281.634 402.435Z" fill="#0099FF"/>
</svg>
